# xmcd
# Track frame offsets:
# 150
# 19800
# 38661
# 53722
# 76546
# 91741
# 120789
# 137740
# 163858
# 194591
# 222151
# 274246
# 319571
#
# Disc length: 4495 seconds
# Revision: 0
# Processed by: cddbd v1.5.2PL0 Copyright (c) Steve Scherf et al.
# Submitted via: VisiTrax 2.10.2.252 - For more info visit www.synapsa.com
#
DISCID=a2118d0d
DTITLE=Lance Lopez - First things first
DYEAR=2007
DGENRE=Blues
TTITLE0=Life
TTITLE1=Walk It
TTITLE2=Dawn of a new day
TTITLE3=Something´s telling me
TTITLE4=There is love
TTITLE5=The brick
TTITLE6=Wait and see
TTITLE7=Where have you gone ?
TTITLE8=Alone in love
TTITLE9=Fopp
TTITLE10=Thunderbird south
TTITLE11=For always
TTITLE12=Sad days and lonely nights
EXTD=
EXTT0=
EXTT1=
EXTT2=
EXTT3=
EXTT4=
EXTT5=
EXTT6=
EXTT7=
EXTT8=
EXTT9=
EXTT10=
EXTT11=
EXTT12=
PLAYORDER=
